<mxfile host="" modified="2021-01-07T15:36:51.810Z" agent="5.0 (Windows NT 6.2; Win64; x64) AppleWebKit/537.36 (KHTML, like Gecko) Chrome/84.0.4147.105 Safari/537.36" etag="hZBAn4BXSoWdrgHQPNEv" version="13.7.9" type="embed"><diagram id="k-cgsag5qqBux0wjnpxr" name="Page-1"><mxGraphModel dx="2686" dy="2161" grid="1" gridSize="10" guides="1" tooltips="1" connect="1" arrows="1" fold="1" page="1" pageScale="1" pageWidth="850" pageHeight="1100" math="0" shadow="0"><root><mxCell id="0"/><mxCell id="1" parent="0"/><mxCell id="eUVtfUdodgGy1WMCCRSf-19" value="Object diagram" style="text;align=center;fontStyle=1;verticalAlign=middle;spacingLeft=3;spacingRight=3;strokeColor=none;rotatable=0;points=[[0,0.5],[1,0.5]];portConstraint=eastwest;" parent="1" vertex="1"><mxGeometry x="335" y="-344" width="80" height="26" as="geometry"/></mxCell><mxCell id="eUVtfUdodgGy1WMCCRSf-10" value="Features of room" style="swimlane;fontStyle=0;childLayout=stackLayout;horizontal=1;startSize=26;fillColor=none;horizontalStack=0;resizeParent=1;resizeParentMax=0;resizeLast=0;collapsible=1;marginBottom=0;" parent="1" vertex="1"><mxGeometry x="-150" width="170" height="52" as="geometry"/></mxCell><mxCell id="56" value="Show customer details" style="swimlane;fontStyle=0;childLayout=stackLayout;horizontal=1;startSize=26;fillColor=none;horizontalStack=0;resizeParent=1;resizeParentMax=0;resizeLast=0;collapsible=1;marginBottom=0;" parent="1" vertex="1"><mxGeometry x="280" width="170" height="52" as="geometry"/></mxCell><mxCell id="50" value="Restaurant reservation" style="swimlane;fontStyle=0;childLayout=stackLayout;horizontal=1;startSize=26;fillColor=none;horizontalStack=0;resizeParent=1;resizeParentMax=0;resizeLast=0;collapsible=1;marginBottom=0;" parent="1" vertex="1"><mxGeometry x="490" width="170" height="52" as="geometry"/></mxCell><mxCell id="44" value="Cancellation" style="swimlane;fontStyle=0;childLayout=stackLayout;horizontal=1;startSize=26;fillColor=none;horizontalStack=0;resizeParent=1;resizeParentMax=0;resizeLast=0;collapsible=1;marginBottom=0;" parent="1" vertex="1"><mxGeometry x="700" width="170" height="52" as="geometry"/></mxCell><mxCell id="110" value="" style="line;strokeWidth=2;direction=south;html=1;" parent="1" vertex="1"><mxGeometry x="-280" y="-160" width="10" height="160" as="geometry"/></mxCell><mxCell id="104" value="Check out" style="swimlane;fontStyle=0;childLayout=stackLayout;horizontal=1;startSize=26;fillColor=none;horizontalStack=0;resizeParent=1;resizeParentMax=0;resizeLast=0;collapsible=1;marginBottom=0;" parent="1" vertex="1"><mxGeometry x="920" width="170" height="52" as="geometry"/></mxCell><mxCell id="92" value="Exit" style="swimlane;fontStyle=0;childLayout=stackLayout;horizontal=1;startSize=26;fillColor=none;horizontalStack=0;resizeParent=1;resizeParentMax=0;resizeLast=0;collapsible=1;marginBottom=0;" parent="1" vertex="1"><mxGeometry x="-40" y="158" width="170" height="52" as="geometry"/></mxCell><mxCell id="74" value="parking reservation" style="swimlane;fontStyle=0;childLayout=stackLayout;horizontal=1;startSize=26;fillColor=none;horizontalStack=0;resizeParent=1;resizeParentMax=0;resizeLast=0;collapsible=1;marginBottom=0;" parent="1" vertex="1"><mxGeometry x="760" y="180" width="170" height="52" as="geometry"/></mxCell><mxCell id="62" value="Check In" style="swimlane;fontStyle=0;childLayout=stackLayout;horizontal=1;startSize=26;fillColor=none;horizontalStack=0;resizeParent=1;resizeParentMax=0;resizeLast=0;collapsible=1;marginBottom=0;" parent="1" vertex="1"><mxGeometry x="70" width="170" height="52" as="geometry"/></mxCell><mxCell id="98" value="check for availability" style="swimlane;fontStyle=0;childLayout=stackLayout;horizontal=1;startSize=26;fillColor=none;horizontalStack=0;resizeParent=1;resizeParentMax=0;resizeLast=0;collapsible=1;marginBottom=0;" parent="1" vertex="1"><mxGeometry x="-360" width="170" height="52" as="geometry"/></mxCell><mxCell id="111" value="" style="line;strokeWidth=2;direction=south;html=1;rotation=90;" parent="1" vertex="1"><mxGeometry x="-200" y="-240" width="10" height="160" as="geometry"/></mxCell><mxCell id="112" value="" style="line;strokeWidth=2;direction=south;html=1;rotation=90;" parent="1" vertex="1"><mxGeometry x="70" y="-240" width="10" height="160" as="geometry"/></mxCell><mxCell id="113" value="" style="line;strokeWidth=2;direction=south;html=1;rotation=90;" parent="1" vertex="1"><mxGeometry x="210" y="-240" width="10" height="160" as="geometry"/></mxCell><mxCell id="114" value="" style="line;strokeWidth=2;direction=south;html=1;rotation=90;" parent="1" vertex="1"><mxGeometry x="-60" y="-240" width="10" height="160" as="geometry"/></mxCell><mxCell id="116" value="" style="line;strokeWidth=2;direction=south;html=1;rotation=-180;" parent="1" vertex="1"><mxGeometry x="370" y="-130" width="10" height="130" as="geometry"/></mxCell><mxCell id="117" value="" style="line;strokeWidth=2;direction=south;html=1;rotation=90;" parent="1" vertex="1"><mxGeometry x="1090" y="-240" width="10" height="160" as="geometry"/></mxCell><mxCell id="118" value="" style="line;strokeWidth=2;direction=south;html=1;rotation=90;" parent="1" vertex="1"><mxGeometry x="1020" y="-240" width="10" height="160" as="geometry"/></mxCell><mxCell id="119" value="" style="line;strokeWidth=2;direction=south;html=1;rotation=90;" parent="1" vertex="1"><mxGeometry x="860" y="-240" width="10" height="160" as="geometry"/></mxCell><mxCell id="120" value="" style="line;strokeWidth=2;direction=south;html=1;rotation=90;" parent="1" vertex="1"><mxGeometry x="700" y="-240" width="10" height="160" as="geometry"/></mxCell><mxCell id="121" value="" style="line;strokeWidth=2;direction=south;html=1;rotation=90;" parent="1" vertex="1"><mxGeometry x="546" y="-240" width="10" height="160" as="geometry"/></mxCell><mxCell id="122" value="" style="line;strokeWidth=2;direction=south;html=1;rotation=-180;" parent="1" vertex="1"><mxGeometry x="570" y="-160" width="10" height="160" as="geometry"/></mxCell><mxCell id="123" value="" style="line;strokeWidth=2;direction=south;html=1;rotation=-180;" parent="1" vertex="1"><mxGeometry x="990" y="-160" width="10" height="160" as="geometry"/></mxCell><mxCell id="124" value="" style="line;strokeWidth=2;direction=south;html=1;rotation=-180;" parent="1" vertex="1"><mxGeometry x="770" y="-160" width="10" height="160" as="geometry"/></mxCell><mxCell id="125" value="" style="line;strokeWidth=2;direction=south;html=1;rotation=-180;" parent="1" vertex="1"><mxGeometry x="1170" y="-160" width="10" height="160" as="geometry"/></mxCell><mxCell id="126" value="" style="line;strokeWidth=2;direction=south;html=1;rotation=-180;" parent="1" vertex="1"><mxGeometry x="1170" y="-2" width="10" height="144" as="geometry"/></mxCell><mxCell id="127" value="" style="line;strokeWidth=2;direction=south;html=1;rotation=-180;" parent="1" vertex="1"><mxGeometry x="150" y="-160" width="10" height="160" as="geometry"/></mxCell><mxCell id="129" value="" style="line;strokeWidth=2;direction=south;html=1;rotation=-180;" parent="1" vertex="1"><mxGeometry x="40" y="-2" width="10" height="160" as="geometry"/></mxCell><mxCell id="130" value="" style="line;strokeWidth=2;direction=south;html=1;rotation=-180;" parent="1" vertex="1"><mxGeometry x="40" y="-160" width="10" height="160" as="geometry"/></mxCell><mxCell id="133" value="" style="line;strokeWidth=2;direction=south;html=1;rotation=-180;" parent="1" vertex="1"><mxGeometry x="250" y="-160" width="10" height="160" as="geometry"/></mxCell><mxCell id="134" value="" style="line;strokeWidth=2;direction=south;html=1;rotation=-180;" parent="1" vertex="1"><mxGeometry x="250" width="10" height="160" as="geometry"/></mxCell><mxCell id="136" value="" style="line;strokeWidth=2;direction=south;html=1;rotation=-180;" parent="1" vertex="1"><mxGeometry x="470" y="-160" width="10" height="160" as="geometry"/></mxCell><mxCell id="137" value="" style="line;strokeWidth=2;direction=south;html=1;rotation=-180;" parent="1" vertex="1"><mxGeometry x="470" y="-4" width="10" height="162" as="geometry"/></mxCell><mxCell id="138" value="" style="line;strokeWidth=2;direction=south;html=1;rotation=-90;" parent="1" vertex="1"><mxGeometry x="509" y="117.21" width="10" height="80" as="geometry"/></mxCell><mxCell id="140" value="" style="line;strokeWidth=2;direction=south;html=1;rotation=0;" parent="1" vertex="1"><mxGeometry x="550" y="156" width="10" height="18" as="geometry"/></mxCell><mxCell id="141" value="" style="line;strokeWidth=2;direction=south;html=1;rotation=155;" parent="1" vertex="1"><mxGeometry x="851.73" y="-168.38" width="10" height="176.19" as="geometry"/></mxCell><mxCell id="142" value="" style="line;strokeWidth=2;direction=south;html=1;rotation=180;" parent="1" vertex="1"><mxGeometry x="889" y="-0.81" width="10" height="161.57" as="geometry"/></mxCell><mxCell id="143" value="" style="line;strokeWidth=2;direction=south;html=1;rotation=-90;" parent="1" vertex="1"><mxGeometry x="860.28" y="131.91" width="10" height="58.61" as="geometry"/></mxCell><mxCell id="144" value="" style="line;strokeWidth=2;direction=south;html=1;rotation=0;" parent="1" vertex="1"><mxGeometry x="830" y="160" width="10" height="20" as="geometry"/></mxCell><mxCell id="145" value="" style="line;strokeWidth=2;direction=south;html=1;rotation=-155;" parent="1" vertex="1"><mxGeometry x="-40" y="-168.38" width="10" height="160" as="geometry"/></mxCell><mxCell id="146" value="" style="line;strokeWidth=2;direction=south;html=1;rotation=-180;" parent="1" vertex="1"><mxGeometry x="-74" y="-15.95" width="10" height="17" as="geometry"/></mxCell><mxCell id="86" value="Taxi reservation" style="swimlane;fontStyle=0;childLayout=stackLayout;horizontal=1;startSize=26;fillColor=none;horizontalStack=0;resizeParent=1;resizeParentMax=0;resizeLast=0;collapsible=1;marginBottom=0;" parent="1" vertex="1"><mxGeometry x="210" y="160" width="170" height="51.76" as="geometry"/></mxCell><mxCell id="38" value="salles reservation" style="swimlane;fontStyle=0;childLayout=stackLayout;horizontal=1;startSize=26;fillColor=none;horizontalStack=0;resizeParent=1;resizeParentMax=0;resizeLast=0;collapsible=1;marginBottom=0;" parent="1" vertex="1"><mxGeometry x="470" y="174" width="170" height="52" as="geometry"/></mxCell><mxCell id="80" value="Airplanes reservation" style="swimlane;fontStyle=0;childLayout=stackLayout;horizontal=1;startSize=26;fillColor=none;horizontalStack=0;resizeParent=1;resizeParentMax=0;resizeLast=0;collapsible=1;marginBottom=0;" parent="1" vertex="1"><mxGeometry x="1090" y="142" width="170" height="52" as="geometry"/></mxCell><mxCell id="149" value="Use" style="endArrow=open;endSize=12;dashed=1;html=1;exitX=0.5;exitY=1;exitDx=0;exitDy=0;" parent="1" source="98" edge="1"><mxGeometry width="160" relative="1" as="geometry"><mxPoint x="-280" y="300" as="sourcePoint"/><mxPoint x="-275" y="150" as="targetPoint"/></mxGeometry></mxCell><mxCell id="150" value="room availability" style="swimlane;fontStyle=0;childLayout=stackLayout;horizontal=1;startSize=26;fillColor=none;horizontalStack=0;resizeParent=1;resizeParentMax=0;resizeLast=0;collapsible=1;marginBottom=0;" parent="1" vertex="1"><mxGeometry x="-345" y="148" width="140" height="130" as="geometry"/></mxCell><mxCell id="151" value="-RoomNumber : int" style="text;strokeColor=none;fillColor=none;align=left;verticalAlign=top;spacingLeft=4;spacingRight=4;overflow=hidden;rotatable=0;points=[[0,0.5],[1,0.5]];portConstraint=eastwest;" parent="150" vertex="1"><mxGeometry y="26" width="140" height="26" as="geometry"/></mxCell><mxCell id="152" value="-TypeOfRoom : enum&#10;&lt;RoomType&gt;" style="text;strokeColor=none;fillColor=none;align=left;verticalAlign=top;spacingLeft=4;spacingRight=4;overflow=hidden;rotatable=0;points=[[0,0.5],[1,0.5]];portConstraint=eastwest;" parent="150" vertex="1"><mxGeometry y="52" width="140" height="38" as="geometry"/></mxCell><mxCell id="153" value="-MaxNumberOfPeople : &#10;int" style="text;strokeColor=none;fillColor=none;align=left;verticalAlign=top;spacingLeft=4;spacingRight=4;overflow=hidden;rotatable=0;points=[[0,0.5],[1,0.5]];portConstraint=eastwest;" parent="150" vertex="1"><mxGeometry y="90" width="140" height="40" as="geometry"/></mxCell><mxCell id="154" value="Use" style="endArrow=open;endSize=12;dashed=1;html=1;exitX=0.5;exitY=1;exitDx=0;exitDy=0;" parent="1" edge="1"><mxGeometry width="160" relative="1" as="geometry"><mxPoint x="160" y="52" as="sourcePoint"/><mxPoint x="160" y="440" as="targetPoint"/></mxGeometry></mxCell><mxCell id="155" value="Use" style="endArrow=open;endSize=12;dashed=1;html=1;exitX=0.5;exitY=1;exitDx=0;exitDy=0;" parent="1" edge="1"><mxGeometry width="160" relative="1" as="geometry"><mxPoint x="40" y="210" as="sourcePoint"/><mxPoint x="40" y="308" as="targetPoint"/></mxGeometry></mxCell><mxCell id="156" value="Use" style="endArrow=open;endSize=12;dashed=1;html=1;exitX=0.5;exitY=1;exitDx=0;exitDy=0;entryX=0.379;entryY=0;entryDx=0;entryDy=0;entryPerimeter=0;" parent="1" target="237" edge="1"><mxGeometry width="160" relative="1" as="geometry"><mxPoint x="-110" y="52" as="sourcePoint"/><mxPoint x="-110" y="150" as="targetPoint"/></mxGeometry></mxCell><mxCell id="157" value="Use" style="endArrow=open;endSize=12;dashed=1;html=1;exitX=0.5;exitY=1;exitDx=0;exitDy=0;" parent="1" edge="1"><mxGeometry width="160" relative="1" as="geometry"><mxPoint x="410" y="52" as="sourcePoint"/><mxPoint x="410" y="450" as="targetPoint"/></mxGeometry></mxCell><mxCell id="158" value="Use" style="endArrow=open;endSize=12;dashed=1;html=1;exitX=0.5;exitY=1;exitDx=0;exitDy=0;" parent="1" edge="1"><mxGeometry width="160" relative="1" as="geometry"><mxPoint x="720" y="52" as="sourcePoint"/><mxPoint x="720" y="480" as="targetPoint"/></mxGeometry></mxCell><mxCell id="159" value="Use" style="endArrow=open;endSize=12;dashed=1;html=1;entryX=0.654;entryY=-0.029;entryDx=0;entryDy=0;entryPerimeter=0;" parent="1" target="197" edge="1"><mxGeometry width="160" relative="1" as="geometry"><mxPoint x="660" y="52" as="sourcePoint"/><mxPoint x="650" y="480" as="targetPoint"/></mxGeometry></mxCell><mxCell id="160" value="Use" style="endArrow=open;endSize=12;dashed=1;html=1;exitX=0.5;exitY=1;exitDx=0;exitDy=0;" parent="1" edge="1"><mxGeometry width="160" relative="1" as="geometry"><mxPoint x="1000" y="52" as="sourcePoint"/><mxPoint x="1000" y="150" as="targetPoint"/></mxGeometry></mxCell><mxCell id="161" value="Use" style="endArrow=open;endSize=12;dashed=1;html=1;exitX=0.5;exitY=1;exitDx=0;exitDy=0;" parent="1" edge="1"><mxGeometry width="160" relative="1" as="geometry"><mxPoint x="1174.5" y="194" as="sourcePoint"/><mxPoint x="1174.5" y="292" as="targetPoint"/></mxGeometry></mxCell><mxCell id="162" value="Use" style="endArrow=open;endSize=12;dashed=1;html=1;exitX=0.5;exitY=1;exitDx=0;exitDy=0;" parent="1" edge="1"><mxGeometry width="160" relative="1" as="geometry"><mxPoint x="834.5" y="232" as="sourcePoint"/><mxPoint x="834.5" y="330" as="targetPoint"/></mxGeometry></mxCell><mxCell id="163" value="Use" style="endArrow=open;endSize=12;dashed=1;html=1;exitX=0.5;exitY=1;exitDx=0;exitDy=0;" parent="1" edge="1"><mxGeometry width="160" relative="1" as="geometry"><mxPoint x="554.5" y="226" as="sourcePoint"/><mxPoint x="554.5" y="324" as="targetPoint"/></mxGeometry></mxCell><mxCell id="164" value="Use" style="endArrow=open;endSize=12;dashed=1;html=1;exitX=0.5;exitY=1;exitDx=0;exitDy=0;" parent="1" edge="1"><mxGeometry width="160" relative="1" as="geometry"><mxPoint x="294.5" y="211.76" as="sourcePoint"/><mxPoint x="294.5" y="309.76" as="targetPoint"/></mxGeometry></mxCell><mxCell id="177" value="exit" style="swimlane;fontStyle=0;childLayout=stackLayout;horizontal=1;startSize=26;fillColor=none;horizontalStack=0;resizeParent=1;resizeParentMax=0;resizeLast=0;collapsible=1;marginBottom=0;" parent="1" vertex="1"><mxGeometry x="-30" y="320" width="140" height="52" as="geometry"/></mxCell><mxCell id="180" value="-end process" style="text;strokeColor=none;fillColor=none;align=left;verticalAlign=top;spacingLeft=4;spacingRight=4;overflow=hidden;rotatable=0;points=[[0,0.5],[1,0.5]];portConstraint=eastwest;" parent="177" vertex="1"><mxGeometry y="26" width="140" height="26" as="geometry"/></mxCell><mxCell id="169" value="Taxi" style="swimlane;fontStyle=0;childLayout=stackLayout;horizontal=1;startSize=26;fillColor=none;horizontalStack=0;resizeParent=1;resizeParentMax=0;resizeLast=0;collapsible=1;marginBottom=0;" parent="1" vertex="1"><mxGeometry x="180" y="310" width="210" height="76" as="geometry"/></mxCell><mxCell id="170" value="-IsUsingCar : Object&lt;Car&gt;" style="text;strokeColor=none;fillColor=none;align=left;verticalAlign=top;spacingLeft=4;spacingRight=4;overflow=hidden;rotatable=0;points=[[0,0.5],[1,0.5]];portConstraint=eastwest;" parent="169" vertex="1"><mxGeometry y="26" width="210" height="24" as="geometry"/></mxCell><mxCell id="171" value="-TypeOfBudget : enum&lt;BudgetType&gt;" style="text;strokeColor=none;fillColor=none;align=left;verticalAlign=top;spacingLeft=4;spacingRight=4;overflow=hidden;rotatable=0;points=[[0,0.5],[1,0.5]];portConstraint=eastwest;" parent="169" vertex="1"><mxGeometry y="50" width="210" height="26" as="geometry"/></mxCell><mxCell id="165" value="salles" style="swimlane;fontStyle=0;childLayout=stackLayout;horizontal=1;startSize=26;fillColor=none;horizontalStack=0;resizeParent=1;resizeParentMax=0;resizeLast=0;collapsible=1;marginBottom=0;" parent="1" vertex="1"><mxGeometry x="430" y="330" width="210" height="78" as="geometry"/></mxCell><mxCell id="166" value="-IsUsingsalles : Object&lt;salles&gt;" style="text;strokeColor=none;fillColor=none;align=left;verticalAlign=top;spacingLeft=4;spacingRight=4;overflow=hidden;rotatable=0;points=[[0,0.5],[1,0.5]];portConstraint=eastwest;" parent="165" vertex="1"><mxGeometry y="26" width="210" height="26" as="geometry"/></mxCell><mxCell id="167" value="-TypeOfsalles: enum&lt;sallestType&gt;" style="text;strokeColor=none;fillColor=none;align=left;verticalAlign=top;spacingLeft=4;spacingRight=4;overflow=hidden;rotatable=0;points=[[0,0.5],[1,0.5]];portConstraint=eastwest;" parent="165" vertex="1"><mxGeometry y="52" width="210" height="26" as="geometry"/></mxCell><mxCell id="189" value="check out" style="swimlane;fontStyle=0;childLayout=stackLayout;horizontal=1;startSize=26;fillColor=none;horizontalStack=0;resizeParent=1;resizeParentMax=0;resizeLast=0;collapsible=1;marginBottom=0;" parent="1" vertex="1"><mxGeometry x="935" y="154" width="140" height="104" as="geometry"/></mxCell><mxCell id="190" value="-insert informations" style="text;strokeColor=none;fillColor=none;align=left;verticalAlign=top;spacingLeft=4;spacingRight=4;overflow=hidden;rotatable=0;points=[[0,0.5],[1,0.5]];portConstraint=eastwest;" parent="189" vertex="1"><mxGeometry y="26" width="140" height="26" as="geometry"/></mxCell><mxCell id="191" value="-bills validation" style="text;strokeColor=none;fillColor=none;align=left;verticalAlign=top;spacingLeft=4;spacingRight=4;overflow=hidden;rotatable=0;points=[[0,0.5],[1,0.5]];portConstraint=eastwest;" parent="189" vertex="1"><mxGeometry y="52" width="140" height="26" as="geometry"/></mxCell><mxCell id="192" value="-check out validated" style="text;strokeColor=none;fillColor=none;align=left;verticalAlign=top;spacingLeft=4;spacingRight=4;overflow=hidden;rotatable=0;points=[[0,0.5],[1,0.5]];portConstraint=eastwest;" parent="189" vertex="1"><mxGeometry y="78" width="140" height="26" as="geometry"/></mxCell><mxCell id="185" value="Airplanes" style="swimlane;fontStyle=0;childLayout=stackLayout;horizontal=1;startSize=26;fillColor=none;horizontalStack=0;resizeParent=1;resizeParentMax=0;resizeLast=0;collapsible=1;marginBottom=0;" parent="1" vertex="1"><mxGeometry x="1105" y="290" width="215" height="78" as="geometry"/></mxCell><mxCell id="186" value="-IsUsingairplanes : Object&lt;airplanes&gt;" style="text;strokeColor=none;fillColor=none;align=left;verticalAlign=top;spacingLeft=4;spacingRight=4;overflow=hidden;rotatable=0;points=[[0,0.5],[1,0.5]];portConstraint=eastwest;" parent="185" vertex="1"><mxGeometry y="26" width="215" height="26" as="geometry"/></mxCell><mxCell id="187" value="-TypeOfBudget : enum&lt;BudgetType&gt;" style="text;strokeColor=none;fillColor=none;align=left;verticalAlign=top;spacingLeft=4;spacingRight=4;overflow=hidden;rotatable=0;points=[[0,0.5],[1,0.5]];portConstraint=eastwest;" parent="185" vertex="1"><mxGeometry y="52" width="215" height="26" as="geometry"/></mxCell><mxCell id="181" value="Parking" style="swimlane;fontStyle=0;childLayout=stackLayout;horizontal=1;startSize=26;fillColor=none;horizontalStack=0;resizeParent=1;resizeParentMax=0;resizeLast=0;collapsible=1;marginBottom=0;" parent="1" vertex="1"><mxGeometry x="760" y="330" width="220" height="78" as="geometry"/></mxCell><mxCell id="182" value="-IsUsingparking : Object&lt;parking&gt;" style="text;strokeColor=none;fillColor=none;align=left;verticalAlign=top;spacingLeft=4;spacingRight=4;overflow=hidden;rotatable=0;points=[[0,0.5],[1,0.5]];portConstraint=eastwest;" parent="181" vertex="1"><mxGeometry y="26" width="220" height="26" as="geometry"/></mxCell><mxCell id="183" value="-TypeOfparking : enum&lt;parkingtType&gt;" style="text;strokeColor=none;fillColor=none;align=left;verticalAlign=top;spacingLeft=4;spacingRight=4;overflow=hidden;rotatable=0;points=[[0,0.5],[1,0.5]];portConstraint=eastwest;" parent="181" vertex="1"><mxGeometry y="52" width="220" height="26" as="geometry"/></mxCell><mxCell id="193" value="login" style="swimlane;fontStyle=0;childLayout=stackLayout;horizontal=1;startSize=26;fillColor=none;horizontalStack=0;resizeParent=1;resizeParentMax=0;resizeLast=0;collapsible=1;marginBottom=0;" parent="1" vertex="1"><mxGeometry x="90" y="440" width="140" height="120" as="geometry"/></mxCell><mxCell id="194" value="-room availibility" style="text;strokeColor=none;fillColor=none;align=left;verticalAlign=top;spacingLeft=4;spacingRight=4;overflow=hidden;rotatable=0;points=[[0,0.5],[1,0.5]];portConstraint=eastwest;" parent="193" vertex="1"><mxGeometry y="26" width="140" height="26" as="geometry"/></mxCell><mxCell id="195" value="-insert room ;name; &#10;number of costumers&#10;city ; nationalty and &#10;duration of reservation" style="text;strokeColor=none;fillColor=none;align=left;verticalAlign=top;spacingLeft=4;spacingRight=4;overflow=hidden;rotatable=0;points=[[0,0.5],[1,0.5]];portConstraint=eastwest;" parent="193" vertex="1"><mxGeometry y="52" width="140" height="68" as="geometry"/></mxCell><mxCell id="201" value="reservation details" style="swimlane;fontStyle=0;childLayout=stackLayout;horizontal=1;startSize=26;fillColor=none;horizontalStack=0;resizeParent=1;resizeParentMax=0;resizeLast=0;collapsible=1;marginBottom=0;" parent="1" vertex="1"><mxGeometry x="340" y="451" width="140" height="170" as="geometry"/></mxCell><mxCell id="202" value="-Room Number" style="text;strokeColor=none;fillColor=none;align=left;verticalAlign=top;spacingLeft=4;spacingRight=4;overflow=hidden;rotatable=0;points=[[0,0.5],[1,0.5]];portConstraint=eastwest;" parent="201" vertex="1"><mxGeometry y="26" width="140" height="26" as="geometry"/></mxCell><mxCell id="203" value="-Customer Name " style="text;strokeColor=none;fillColor=none;align=left;verticalAlign=top;spacingLeft=4;spacingRight=4;overflow=hidden;rotatable=0;points=[[0,0.5],[1,0.5]];portConstraint=eastwest;" parent="201" vertex="1"><mxGeometry y="52" width="140" height="26" as="geometry"/></mxCell><mxCell id="204" value="-City " style="text;strokeColor=none;fillColor=none;align=left;verticalAlign=top;spacingLeft=4;spacingRight=4;overflow=hidden;rotatable=0;points=[[0,0.5],[1,0.5]];portConstraint=eastwest;" parent="201" vertex="1"><mxGeometry y="78" width="140" height="92" as="geometry"/></mxCell><mxCell id="205" value="cancellation" style="swimlane;fontStyle=0;childLayout=stackLayout;horizontal=1;startSize=26;fillColor=none;horizontalStack=0;resizeParent=1;resizeParentMax=0;resizeLast=0;collapsible=1;marginBottom=0;" parent="1" vertex="1"><mxGeometry x="705" y="480" width="155" height="78" as="geometry"/></mxCell><mxCell id="206" value="-insert informations" style="text;strokeColor=none;fillColor=none;align=left;verticalAlign=top;spacingLeft=4;spacingRight=4;overflow=hidden;rotatable=0;points=[[0,0.5],[1,0.5]];portConstraint=eastwest;" parent="205" vertex="1"><mxGeometry y="26" width="155" height="26" as="geometry"/></mxCell><mxCell id="207" value="-cancel order of reservation" style="text;strokeColor=none;fillColor=none;align=left;verticalAlign=top;spacingLeft=4;spacingRight=4;overflow=hidden;rotatable=0;points=[[0,0.5],[1,0.5]];portConstraint=eastwest;" parent="205" vertex="1"><mxGeometry y="52" width="155" height="26" as="geometry"/></mxCell><mxCell id="211" value="Use" style="endArrow=open;endSize=12;dashed=1;html=1;exitX=0.5;exitY=1;exitDx=0;exitDy=0;" parent="1" edge="1"><mxGeometry width="160" relative="1" as="geometry"><mxPoint x="-275.59" y="278" as="sourcePoint"/><mxPoint x="-276" y="350" as="targetPoint"/></mxGeometry></mxCell><mxCell id="209" value="room type" style="swimlane;fontStyle=0;childLayout=stackLayout;horizontal=1;startSize=26;fillColor=none;horizontalStack=0;resizeParent=1;resizeParentMax=0;resizeLast=0;collapsible=1;marginBottom=0;" parent="1" vertex="1"><mxGeometry x="-345" y="350" width="140" height="110" as="geometry"/></mxCell><mxCell id="210" value="-Single costumer&#10;-Couple&#10;-Tree costumers&#10;-Family&#10;-Two Family" style="text;strokeColor=none;fillColor=none;align=left;verticalAlign=top;spacingLeft=4;spacingRight=4;overflow=hidden;rotatable=0;points=[[0,0.5],[1,0.5]];portConstraint=eastwest;" parent="209" vertex="1"><mxGeometry y="26" width="140" height="84" as="geometry"/></mxCell><mxCell id="213" value="-Nationality&amp;nbsp; &amp;nbsp;" style="text;html=1;strokeColor=none;fillColor=none;align=center;verticalAlign=middle;whiteSpace=wrap;rounded=0;" parent="1" vertex="1"><mxGeometry x="310" y="555" width="140" height="20" as="geometry"/></mxCell><mxCell id="215" value="&amp;nbsp; &amp;nbsp; &amp;nbsp; &amp;nbsp;-Number of member &amp;nbsp;" style="text;html=1;strokeColor=none;fillColor=none;align=center;verticalAlign=middle;whiteSpace=wrap;rounded=0;" parent="1" vertex="1"><mxGeometry x="320" y="581" width="140" height="20" as="geometry"/></mxCell><mxCell id="216" value="-Arrival Date" style="text;html=1;strokeColor=none;fillColor=none;align=center;verticalAlign=middle;whiteSpace=wrap;rounded=0;" parent="1" vertex="1"><mxGeometry x="308" y="601" width="140" height="20" as="geometry"/></mxCell><mxCell id="218" value="Use" style="endArrow=open;endSize=12;dashed=1;html=1;exitX=0.5;exitY=1;exitDx=0;exitDy=0;entryX=0.75;entryY=0;entryDx=0;entryDy=0;" parent="1" target="219" edge="1"><mxGeometry width="160" relative="1" as="geometry"><mxPoint x="284.5" y="386.0000000000002" as="sourcePoint"/><mxPoint x="284.5" y="484.0000000000002" as="targetPoint"/></mxGeometry></mxCell><mxCell id="219" value="budget type" style="swimlane;fontStyle=0;childLayout=stackLayout;horizontal=1;startSize=26;fillColor=none;horizontalStack=0;resizeParent=1;resizeParentMax=0;resizeLast=0;collapsible=1;marginBottom=0;" parent="1" vertex="1"><mxGeometry x="180" y="575" width="140" height="104" as="geometry"/></mxCell><mxCell id="220" value="standard" style="text;strokeColor=none;fillColor=none;align=left;verticalAlign=top;spacingLeft=4;spacingRight=4;overflow=hidden;rotatable=0;points=[[0,0.5],[1,0.5]];portConstraint=eastwest;" parent="219" vertex="1"><mxGeometry y="26" width="140" height="26" as="geometry"/></mxCell><mxCell id="221" value="premium" style="text;strokeColor=none;fillColor=none;align=left;verticalAlign=top;spacingLeft=4;spacingRight=4;overflow=hidden;rotatable=0;points=[[0,0.5],[1,0.5]];portConstraint=eastwest;" parent="219" vertex="1"><mxGeometry y="52" width="140" height="26" as="geometry"/></mxCell><mxCell id="222" value="luxury" style="text;strokeColor=none;fillColor=none;align=left;verticalAlign=top;spacingLeft=4;spacingRight=4;overflow=hidden;rotatable=0;points=[[0,0.5],[1,0.5]];portConstraint=eastwest;" parent="219" vertex="1"><mxGeometry y="78" width="140" height="26" as="geometry"/></mxCell><mxCell id="197" value="restaurtant " style="swimlane;fontStyle=0;childLayout=stackLayout;horizontal=1;startSize=26;fillColor=none;horizontalStack=0;resizeParent=1;resizeParentMax=0;resizeLast=0;collapsible=1;marginBottom=0;" parent="1" vertex="1"><mxGeometry x="540" y="601" width="240" height="104" as="geometry"/></mxCell><mxCell id="198" value="-RestaurantName : string" style="text;strokeColor=none;fillColor=none;align=left;verticalAlign=top;spacingLeft=4;spacingRight=4;overflow=hidden;rotatable=0;points=[[0,0.5],[1,0.5]];portConstraint=eastwest;" parent="197" vertex="1"><mxGeometry y="26" width="240" height="26" as="geometry"/></mxCell><mxCell id="199" value="-RestaurantCategories : Array&lt;FoodType&gt;" style="text;strokeColor=none;fillColor=none;align=left;verticalAlign=top;spacingLeft=4;spacingRight=4;overflow=hidden;rotatable=0;points=[[0,0.5],[1,0.5]];portConstraint=eastwest;" parent="197" vertex="1"><mxGeometry y="52" width="240" height="26" as="geometry"/></mxCell><mxCell id="200" value="-TypeOfBudget : enum&lt;BudgetType&gt;" style="text;strokeColor=none;fillColor=none;align=left;verticalAlign=top;spacingLeft=4;spacingRight=4;overflow=hidden;rotatable=0;points=[[0,0.5],[1,0.5]];portConstraint=eastwest;" parent="197" vertex="1"><mxGeometry y="78" width="240" height="26" as="geometry"/></mxCell><mxCell id="223" value="Use" style="endArrow=open;endSize=12;dashed=1;html=1;exitX=0.5;exitY=1;exitDx=0;exitDy=0;entryX=0.85;entryY=-0.029;entryDx=0;entryDy=0;entryPerimeter=0;" parent="1" target="224" edge="1"><mxGeometry width="160" relative="1" as="geometry"><mxPoint x="509" y="408" as="sourcePoint"/><mxPoint x="509.5" y="597" as="targetPoint"/></mxGeometry></mxCell><mxCell id="224" value="salles type" style="swimlane;fontStyle=0;childLayout=stackLayout;horizontal=1;startSize=26;fillColor=none;horizontalStack=0;resizeParent=1;resizeParentMax=0;resizeLast=0;collapsible=1;marginBottom=0;" parent="1" vertex="1"><mxGeometry x="390" y="640" width="140" height="78" as="geometry"/></mxCell><mxCell id="225" value="fitness" style="text;strokeColor=none;fillColor=none;align=left;verticalAlign=top;spacingLeft=4;spacingRight=4;overflow=hidden;rotatable=0;points=[[0,0.5],[1,0.5]];portConstraint=eastwest;" parent="224" vertex="1"><mxGeometry y="26" width="140" height="26" as="geometry"/></mxCell><mxCell id="226" value="yoga" style="text;strokeColor=none;fillColor=none;align=left;verticalAlign=top;spacingLeft=4;spacingRight=4;overflow=hidden;rotatable=0;points=[[0,0.5],[1,0.5]];portConstraint=eastwest;" parent="224" vertex="1"><mxGeometry y="52" width="140" height="26" as="geometry"/></mxCell><mxCell id="228" value="Use" style="endArrow=open;endSize=12;dashed=1;html=1;exitX=0.5;exitY=1;exitDx=0;exitDy=0;" parent="1" edge="1"><mxGeometry width="160" relative="1" as="geometry"><mxPoint x="960" y="408" as="sourcePoint"/><mxPoint x="960" y="510" as="targetPoint"/></mxGeometry></mxCell><mxCell id="229" value="parking type" style="swimlane;fontStyle=0;childLayout=stackLayout;horizontal=1;startSize=26;fillColor=none;horizontalStack=0;resizeParent=1;resizeParentMax=0;resizeLast=0;collapsible=1;marginBottom=0;" parent="1" vertex="1"><mxGeometry x="870" y="511" width="140" height="78" as="geometry"/></mxCell><mxCell id="230" value="first floor" style="text;strokeColor=none;fillColor=none;align=left;verticalAlign=top;spacingLeft=4;spacingRight=4;overflow=hidden;rotatable=0;points=[[0,0.5],[1,0.5]];portConstraint=eastwest;" parent="229" vertex="1"><mxGeometry y="26" width="140" height="26" as="geometry"/></mxCell><mxCell id="231" value="second floor" style="text;strokeColor=none;fillColor=none;align=left;verticalAlign=top;spacingLeft=4;spacingRight=4;overflow=hidden;rotatable=0;points=[[0,0.5],[1,0.5]];portConstraint=eastwest;" parent="229" vertex="1"><mxGeometry y="52" width="140" height="26" as="geometry"/></mxCell><mxCell id="234" value="" style="endArrow=none;dashed=1;html=1;" parent="1" edge="1"><mxGeometry width="50" height="50" relative="1" as="geometry"><mxPoint x="1220" y="730" as="sourcePoint"/><mxPoint x="1220" y="368" as="targetPoint"/></mxGeometry></mxCell><mxCell id="235" value="" style="endArrow=none;dashed=1;html=1;" parent="1" edge="1"><mxGeometry width="50" height="50" relative="1" as="geometry"><mxPoint x="1220" y="730" as="sourcePoint"/><mxPoint x="260" y="730" as="targetPoint"/></mxGeometry></mxCell><mxCell id="236" value="" style="endArrow=block;dashed=1;endFill=0;endSize=12;html=1;" parent="1" edge="1"><mxGeometry width="160" relative="1" as="geometry"><mxPoint x="262" y="730" as="sourcePoint"/><mxPoint x="262" y="682" as="targetPoint"/></mxGeometry></mxCell><mxCell id="173" value="room type" style="swimlane;fontStyle=0;childLayout=stackLayout;horizontal=1;startSize=26;fillColor=none;horizontalStack=0;resizeParent=1;resizeParentMax=0;resizeLast=0;collapsible=1;marginBottom=0;" parent="1" vertex="1"><mxGeometry x="-190" y="350" width="140" height="110" as="geometry"/></mxCell><mxCell id="174" value="-Single costumer&#10;-Couple&#10;-Tree costumers&#10;-Family&#10;-Two Family" style="text;strokeColor=none;fillColor=none;align=left;verticalAlign=top;spacingLeft=4;spacingRight=4;overflow=hidden;rotatable=0;points=[[0,0.5],[1,0.5]];portConstraint=eastwest;" parent="173" vertex="1"><mxGeometry y="26" width="140" height="84" as="geometry"/></mxCell><mxCell id="237" value="Taxi" style="swimlane;fontStyle=0;childLayout=stackLayout;horizontal=1;startSize=26;fillColor=none;horizontalStack=0;resizeParent=1;resizeParentMax=0;resizeLast=0;collapsible=1;marginBottom=0;" parent="1" vertex="1"><mxGeometry x="-190" y="226" width="210" height="76" as="geometry"/></mxCell><mxCell id="238" value="-IsUsingroom : Object&lt;room&gt;" style="text;strokeColor=none;fillColor=none;align=left;verticalAlign=top;spacingLeft=4;spacingRight=4;overflow=hidden;rotatable=0;points=[[0,0.5],[1,0.5]];portConstraint=eastwest;" parent="237" vertex="1"><mxGeometry y="26" width="210" height="24" as="geometry"/></mxCell><mxCell id="239" value="-TypeOfBudget : enum&lt;BudgetType&gt;" style="text;strokeColor=none;fillColor=none;align=left;verticalAlign=top;spacingLeft=4;spacingRight=4;overflow=hidden;rotatable=0;points=[[0,0.5],[1,0.5]];portConstraint=eastwest;" parent="237" vertex="1"><mxGeometry y="50" width="210" height="26" as="geometry"/></mxCell><mxCell id="240" value="Use" style="endArrow=open;endSize=12;dashed=1;html=1;exitX=0.5;exitY=1;exitDx=0;exitDy=0;" parent="1" edge="1"><mxGeometry width="160" relative="1" as="geometry"><mxPoint x="-119.58999999999992" y="302.0000000000002" as="sourcePoint"/><mxPoint x="-120" y="350" as="targetPoint"/></mxGeometry></mxCell><mxCell id="241" value="Receptionist" style="swimlane;fontStyle=0;childLayout=stackLayout;horizontal=1;startSize=26;fillColor=none;horizontalStack=0;resizeParent=1;resizeParentMax=0;resizeLast=0;collapsible=1;marginBottom=0;" parent="1" vertex="1"><mxGeometry x="310" y="-294" width="140" height="60" as="geometry"/></mxCell><mxCell id="68" value="BaseReservation" style="swimlane;fontStyle=0;childLayout=stackLayout;horizontal=1;startSize=26;fillColor=none;horizontalStack=0;resizeParent=1;resizeParentMax=0;resizeLast=0;collapsible=1;marginBottom=0;" parent="1" vertex="1"><mxGeometry x="295" y="-198" width="175" height="76" as="geometry"/></mxCell><mxCell id="247" value="-StartDatetime : datetime&lt;br&gt;-EndDateitme : datetime&lt;br&gt;-Customer : Object&amp;lt;Customer&amp;gt;" style="text;html=1;align=center;verticalAlign=middle;resizable=0;points=[];autosize=1;" parent="68" vertex="1"><mxGeometry y="26" width="175" height="50" as="geometry"/></mxCell></root></mxGraphModel></diagram></mxfile>